<?xml version="1.0" encoding="utf-8"?>
<!-- Generator: Adobe Illustrator 14.0.0, SVG Export Plug-In . SVG Version: 6.00 Build 43363)  -->
<!DOCTYPE svg PUBLIC "-//W3C//DTD SVG 1.1//EN" "http://www.w3.org/Graphics/SVG/1.1/DTD/svg11.dtd">
<svg version="1.1" id="Layer_1" xmlns="http://www.w3.org/2000/svg" xmlns:xlink="http://www.w3.org/1999/xlink" x="0px" y="0px"
	 width="199px" height="440px" viewBox="0 0 199 440" enable-background="new 0 0 199 440" xml:space="preserve">
<path d="M93.258,116.172c0,0-27.125-12.251-27.83-5.911c-0.704,6.341-23.956,45.093-23.956,45.093
	c-6.342-5.637,1.313-40.865,1.313-40.865l-20.337,26.069c-5.669-10.568,7.046-35.933,11.273-40.161
	c4.228-4.227,14.092-6.341,14.092-17.615c0-11.272,20.979-17.613,20.979-17.613C161.572,55.703,93.258,116.172,93.258,116.172z
	 M73.178,77.851c-5.636,0-11.978,7.751-11.978,7.751C74.889,85.222,78.815,77.851,73.178,77.851z"/>
<path d="M110.968,112.656c0,0-26.695,11.454-43.1,14.266c-16.405,2.811,23.421,1.875,28.575,0
	c5.155-1.874-22.959,4.217-28.113,4.217c-5.154,0-9.84,1.874-7.029,4.216c2.811,2.343-44.739,251.111-59.036,258.635
	c-17.805,9.372,126.506,60.911,145.717,2.813C151.663,385.671,110.968,112.656,110.968,112.656z"/>
<path d="M393.764,145.208c0,0,61.4-2.555,26.541-41.831c0,0,98.695,32.291,13.854-45.546c0,0,118.842,0,112.842,114.836
	c0,0-88.495-63.049-142.726-6.865"/>
<path d="M111.923,160.129c0,0,67.033,6.791,66.408,30.53c-0.623,23.737-52.476,2.499-35.608,41.855
	c17.127,25.381,36.858,24.363,28.112,56.852c-8.746,32.484,5.623,31.859,7.504,36.857c2.429,6.452-40.614,5.624-18.124-39.356
	c0.684-28.021-23.061-39.763-26.301-44.697s-14.24-29.711-1.813-42.141c8.836-8.835,27.939-2.894,27.939-11.838
	c0-4.81-49.532-14.532-49.532-14.532L111.923,160.129z"/>
<path d="M104.223,147.537c0,0,22.805-19.055,39.357-16.867c16.555,2.186,52.164,8.746,40.919,22.49
	c-11.244,13.742-21.241,15.617-9.996,22.488c11.245,6.873,33.424,32.486,19.058,48.729c-14.371,16.242-13.746,6.194-13.746,6.194
	s5.935-2.76,5.313-12.756c-0.628-9.995,0.271-30.277-19.993-35.748c-20.264-5.47-7.496-18.292-3.748-20.791
	c3.748-2.498,23.426-13.742,3.748-18.115c-19.682-4.373-24.471-4.07-28.113-3.748c-10.621,0.938-21.554,11.253-21.554,11.253
	L104.223,147.537z"/>
<path d="M122.88,126.635l-3.667-8.522l28.264-27.101c1.726-1.916-0.563,1.481,0.861,1.644c27.398,3.129,29.771,18.339,37,28.693
	c0,0-15.749-9.708-20.712-0.97c0,0-14.454-12.406-20.817-0.036C143.809,120.343,137.658,111.101,122.88,126.635z"/>
<path d="M-267.207,407.019c0,0-20.979-6.341-20.979-17.614c0-11.272-9.864-13.387-14.092-17.614
	c-4.227-4.228-16.943-29.593-11.273-40.16l20.337,26.068c0,0-7.655-35.229-1.313-40.864c0,0,23.251,38.752,23.956,45.093
	c0.705,6.34,27.83-5.91,27.83-5.91S-174.428,416.484-267.207,407.019z M-274.799,386.586c0,0,6.342,7.75,11.978,7.75
	C-257.185,394.336-261.111,386.966-274.799,386.586z"/>
<path d="M-225.032,359.531c0,0-26.695-11.454-43.1-14.266c-16.405-2.812,23.421-1.874,28.575,0
	c5.154,1.875-22.959-4.217-28.113-4.217c-5.154,0-9.84-1.873-7.029-4.218c2.811-2.343-44.739-251.109-59.036-258.635
	c-17.805-9.372,126.507-60.91,145.717-2.813C-184.337,86.517-225.032,359.531-225.032,359.531z"/>
<path d="M-224.077,312.059c0,0,67.033-6.791,66.408-30.529c-0.623-23.737-52.476-2.499-35.608-41.855
	c17.127-25.381,36.858-24.363,28.112-56.852c-8.746-32.484,5.623-31.859,7.504-36.857c2.428-6.452-40.614-5.624-18.124,39.356
	c0.684,28.021-23.061,39.763-26.301,44.697c-3.24,4.935-14.24,29.711-1.813,42.141c8.836,8.835,27.94,2.894,27.94,11.838
	c0,4.811-49.532,14.532-49.532,14.532L-224.077,312.059z"/>
<path d="M-231.777,324.65c0,0,22.804,19.054,39.357,16.867c16.555-2.188,52.164-8.746,40.919-22.49
	c-11.244-13.742-21.241-15.618-9.996-22.488c11.245-6.872,33.424-32.486,19.057-48.729c-14.37-16.242-13.745-6.195-13.745-6.195
	s5.934,2.761,5.313,12.757c-0.628,9.994,0.271,30.277-19.993,35.748c-20.264,5.469-7.496,18.29-3.749,20.789
	c3.749,2.497,23.427,13.743,3.749,18.116c-19.682,4.373-24.471,4.07-28.114,3.748c-10.62-0.938-21.553-11.253-21.553-11.253
	L-231.777,324.65z"/>
<path d="M-213.12,345.553l-3.667,8.521l28.263,27.102c1.726,1.916-0.563-1.48,0.862-1.645c27.399-3.128,29.772-18.338,37-28.692
	c0,0-15.749,9.708-20.712,0.97c0,0-14.454,12.406-20.818,0.036C-192.192,351.845-198.342,361.086-213.12,345.553z"/>
<polygon points="92.834,51.082 129.334,91.082 130.521,90.269 120.834,78.519 165.834,49.332 136.084,24.582 105.584,61.082 
	95.084,49.082 "/>
<path d="M669.023,356.411c0,0-26.695,11.454-43.1,14.266c-16.405,2.811,23.421,1.875,28.574,0
	c5.155-1.874-22.959,4.217-28.112,4.217c-5.154,0-9.84,1.874-7.029,4.216c2.812,2.343-44.739,251.111-59.036,258.635
	c-17.805,9.372,126.507,60.911,145.718,2.813C709.719,629.427,669.023,356.411,669.023,356.411z"/>
<path d="M785.138,403.885c0,0,67.033,6.791,66.408,30.53c-0.623,23.737-52.476,2.499-35.608,41.855
	c17.127,25.381,36.858,24.363,28.112,56.852c-8.746,32.484,5.623,31.859,7.504,36.857c2.429,6.452-40.614,5.624-18.124-39.356
	c0.684-28.021-23.061-39.763-26.301-44.697s-14.24-29.711-1.813-42.141c8.836-8.835,27.939-2.894,27.939-11.838
	c0-4.81-49.532-14.532-49.532-14.532L785.138,403.885z"/>
<path d="M654.19,312.703c0,0,22.805-19.055,39.357-16.867c16.555,2.186,52.164,8.746,40.919,22.49
	c-11.244,13.742-21.241,15.617-9.996,22.488c11.245,6.873,33.424,32.486,19.058,48.729c-14.371,16.242-13.746,6.194-13.746,6.194
	s5.935-2.76,5.313-12.756c-0.628-9.995,0.271-30.277-19.993-35.748c-20.264-5.47-7.496-18.292-3.748-20.791
	c3.748-2.498,23.426-13.742,3.748-18.115c-19.682-4.373-24.471-4.07-28.113-3.748c-10.621,0.938-21.554,11.253-21.554,11.253
	L654.19,312.703z"/>
<path d="M871.936,365.34l-3.667-8.522l28.264-27.101c1.726-1.916-0.563,1.481,0.861,1.644c27.398,3.129,29.771,18.339,37,28.693
	c0,0-15.749-9.708-20.712-0.97c0,0-14.454-12.406-20.817-0.036C892.864,359.048,886.714,349.806,871.936,365.34z"/>
<polygon points="747.224,286.172 783.724,326.172 784.911,325.359 775.224,313.609 820.224,284.422 790.474,259.672 
	759.974,296.172 749.474,284.172 "/>
<path d="M586.5,380.334c-3.703,4.254-14.206-3.833-14.206-3.833c-1.279,0,12.922-29.113,19.456-33.376
	c4.228-4.227,14.119-5.313,14.119-16.588c0-11.272,20.979-17.613,20.979-17.613c92.78-9.465,29.779,47.682,24.466,51.004
	C647.513,362.304,611.167,352.001,586.5,380.334z M599.527,399.11 M633.399,316.615c-5.637,0-18.649,15.135-18.649,15.135
	C621.744,347.393,639.036,316.615,633.399,316.615z M614.399,331.777c-6.212-3.089,3.188-13.776,3.188-13.776
	c-11.125,10.375-6.024,13.125-6.024,13.125L614.399,331.777z"/>
<path d="M574.34,375.261c0,0-4.356,0.913-2.608,3.245c0,0-3.848,0.152-2.644,2.772c0,0-2.781,0.813-2.049,2.697
	c0,0-0.479,1.233-0.081,3.316l6,3.375c0,0,4.125,0.375,4.498-1.706c0,0,2.866-1.797,2.361-3.009c0,0,2.804-1.058,2.182-2.786
	c0,0,3.013-1.887,1.819-3.123C582.624,378.807,574.34,375.261,574.34,375.261z"/>
<path d="M682,365.34c0,0,54,259.16,28.331,235.16S645,399.11,645,399.11"/>
<path fill="#FFFFFF" d="M639.373,389.97c7.393,38.848,45.394,165.252,61.831,196.835L639.373,389.97z"/>
<path fill="#FFFFFF" d="M711.574,525.158"/>
<path fill="#FFFFFF" d="M700.973,485.472"/>
<path fill="#FFFFFF" d="M717.252,589.667"/>
</svg>
