<?xml version="1.0" encoding="utf-8"?>
<!-- Generator: Adobe Illustrator 14.0.0, SVG Export Plug-In . SVG Version: 6.00 Build 43363)  -->
<!DOCTYPE svg PUBLIC "-//W3C//DTD SVG 1.1//EN" "http://www.w3.org/Graphics/SVG/1.1/DTD/svg11.dtd">
<svg version="1.1" id="Layer_1" xmlns="http://www.w3.org/2000/svg" xmlns:xlink="http://www.w3.org/1999/xlink" x="0px" y="0px"
	 width="1440px" height="900px" viewBox="0 0 1440 900" enable-background="new 0 0 1440 900" xml:space="preserve">
<path d="M26.833,302.5c20.169-10.979,59.508-121.524,97.667-125.47c38.158-3.947,86.421,21.991,118,33.833
	c31.579,11.843,8.368,102.338,33,90.167c85-42,409.671-3.925,432.039,3.97c22.368,7.895,99.564-41.685,131.145-28.526
	c31.578,13.157,56.578,42.104,109.211,43.421c52.632,1.316,234.211,40.789,253.947-55.264c19.736-96.052-5.264-96.052-14.475-100
	s-15.789-21.052-15.789-21.052s43.422,15.789,51.316,11.842v-48.685l2.846-2.847l3.063,3.063v2.891h4.359v-2.75l2.836-2.836l3,3V110
	h6.133V50l-6.756-6.755l-4.422-5.995l5.166,2.5l12.418-27.083l11.327,27.083l6-2.5L1259.033,50L1259,109.5h7.417l0.083-4h6.5
	l0.084,4L1277,110l1-5h6.5l-0.5,8l11.917,2l-0.053-26l-3.411-1.5l-0.202-10h-5.751L1299,55l13.834,23h-6.334v9.5l-4,1.5v26h5.5v-7
	h7.5v8h5v-8h7.5v8.5V162l27-0.5c0,0,3.5,16-5.5,17.5s-15,17.5-9.5,21s-2.5,19.5,9,22.5s20,44.5,28,45.5s34,33.5,48.5,33.5
	s14.5,6.5,14.5,6.5v592H0l-0.136-592"/>
<path fill="#FFFFFF" d="M128.254,204.068l8.659,0.307c0,0,0.861-10.585-4.306-10.541
	C127.441,193.877,128.254,204.068,128.254,204.068z"/>
<path fill="#FFFFFF" d="M118.539,214.609l8.659,0.307c0,0,0.861-10.585-4.306-10.541
	C117.726,204.418,118.539,214.609,118.539,214.609z"/>
<path fill="#FFFFFF" d="M86.254,233.068l8.659,0.307c0,0,0.861-10.585-4.306-10.541C85.441,222.877,86.254,233.068,86.254,233.068z"
	/>
<path fill="#FFFFFF" d="M103.502,225.15l8.659,0.307c0,0,0.861-10.585-4.306-10.541C102.688,214.959,103.502,225.15,103.502,225.15z
	"/>
<path fill="#FFFFFF" d="M118.539,232.068l8.659,0.307c0,0,0.861-10.585-4.306-10.541
	C117.726,221.877,118.539,232.068,118.539,232.068z"/>
<path fill="#FFFFFF" d="M132.634,221.527l8.659,0.307c0,0,0.861-10.585-4.306-10.541
	C131.821,211.336,132.634,221.527,132.634,221.527z"/>
<path fill="#FFFFFF" d="M141.394,206.735l8.659,0.307c0,0,0.861-10.585-4.306-10.541
	C140.581,196.544,141.394,206.735,141.394,206.735z"/>
<polyline points="99.986,193.834 124.986,193.834 124.986,173.834 128.736,173.834 128.736,169.334 125.434,169.334 
	124.986,165.614 123.278,162.584 123.278,161.25 100.819,161.25 100.819,162.584 99.819,165.75 99.331,169.334 95.694,169.334 
	95.694,173.834 99.986,173.822 "/>
<polygon points="111.288,161.25 111.288,153.03 108.538,153.03 108.538,151.334 111.288,151.334 111.288,150 113.205,150 
	113.205,151.334 115.892,151.334 115.892,153.03 113.038,153.03 113.038,161.25 "/>
<path fill="#FFFFFF" d="M1241.205,154.167c0,0,2.178-12.343,4.834-12.333s5.166,12.333,5.166,12.333h-4
	c0,0-23.67,26.103-15.154,29.656c11.424,4.768,24.502,29.533,14.801,36.474c-6.155,4.404-46.313,59.078-17.146,73.703
	c20.774,10.417-13.979,37.5-13.979,37.5l-8.502,0.041c0,0,34.554-29.056,18.814-35.541c-27.5-11.334-0.309-64.22,19.238-76.978
	c7.887-5.147-4.572-30.689-16.072-34.522c-8.508-2.836,14.666-30,15.666-30.5L1241.205,154.167z"/>
<circle fill="#FFFFFF" cx="1371.964" cy="46.812" r="23.406"/>
<path fill="#FFFFFF" d="M1256.333,59.5h-7.962c0,0-0.756-9,3.872-9S1256.333,59.5,1256.333,59.5z"/>
</svg>
