<?xml version="1.0" encoding="utf-8"?>
<!-- Generator: Adobe Illustrator 14.0.0, SVG Export Plug-In . SVG Version: 6.00 Build 43363)  -->
<!DOCTYPE svg PUBLIC "-//W3C//DTD SVG 1.1//EN" "http://www.w3.org/Graphics/SVG/1.1/DTD/svg11.dtd">
<svg version="1.1" id="Layer_1" xmlns="http://www.w3.org/2000/svg" xmlns:xlink="http://www.w3.org/1999/xlink" x="0px" y="0px"
	 width="1440px" height="900px" viewBox="0 0 1440 900" enable-background="new 0 0 1440 900" xml:space="preserve">
<path d="M227.539,273c0,0,69.842-99.053,108-103s86.421,21.991,118,33.833c31.579,11.843,8.368,102.338,33,90.167
	c85-42,198.632,3.105,221,11c22.368,7.895,99.565-41.684,131.145-28.526c31.578,13.157,56.578,42.104,109.211,43.421
	c52.631,1.316,234.211,40.789,253.947-55.264c19.736-96.052-5.264-96.052-14.475-100s-15.789-21.052-15.789-21.052
	s43.422,15.789,51.316,11.842v-48.684l2.846-2.847l3.064,3.063v2.891h4.359v-2.75l2.836-2.836l3,3V110h6.133V50l-6.756-6.755
	l-4.422-5.995l5.166,2.5l12.418-27.083l11.327,27.083l6-2.5L1259.033,50L1259,109.5h7.417l0.083-4h6.5l0.084,4L1277,110l1-5h6.5
	l-0.5,8l11.917,2l-0.053-26l-3.411-1.5l-0.202-10h-5.751L1299,55l13.834,23h-6.334v9.5l-4,1.5v26h5.5v-7h7.5v8h5v-8h7.5v8.5V162
	l27-0.5c0,0,3.5,16-5.5,17.5s-15,17.5-9.5,21s-2.5,19.5,9,22.5s20,44.5,28,45.5s34,33.5,48.5,33.5s14.5,6.5,14.5,6.5v592H0V395
	c0,0,47-60,97-60s100-58,111-57L227.539,273z"/>
<path fill="#FFFFFF" d="M328.754,186.86l8.659,0.306c0,0,0.861-10.585-4.306-10.541C327.941,176.668,328.754,186.86,328.754,186.86z
	"/>
<path fill="#FFFFFF" d="M319.039,197.401l8.659,0.306c0,0,0.861-10.585-4.306-10.541
	C318.226,187.209,319.039,197.401,319.039,197.401z"/>
<path fill="#FFFFFF" d="M286.754,215.86l8.659,0.306c0,0,0.861-10.585-4.306-10.541C285.941,205.668,286.754,215.86,286.754,215.86z
	"/>
<path fill="#FFFFFF" d="M304.002,207.942l8.659,0.306c0,0,0.861-10.585-4.306-10.541
	C303.188,197.75,304.002,207.942,304.002,207.942z"/>
<path fill="#FFFFFF" d="M319.039,214.86l8.659,0.306c0,0,0.861-10.585-4.306-10.541C318.226,204.668,319.039,214.86,319.039,214.86z
	"/>
<path fill="#FFFFFF" d="M333.134,204.319l8.659,0.306c0,0,0.861-10.585-4.306-10.541
	C332.321,194.127,333.134,204.319,333.134,204.319z"/>
<path fill="#FFFFFF" d="M341.894,189.527l8.659,0.306c0,0,0.861-10.585-4.306-10.541
	C341.081,179.335,341.894,189.527,341.894,189.527z"/>
<polyline points="338.378,172.917 363.378,172.917 363.378,152.917 367.128,152.917 367.128,148.417 363.826,148.417 
	363.378,144.698 361.67,141.667 361.67,140.333 339.211,140.333 339.211,141.667 338.211,144.833 337.723,148.417 334.086,148.417 
	334.086,152.917 338.378,152.906 "/>
<polygon points="349.68,140.333 349.68,132.114 346.93,132.114 346.93,130.417 349.68,130.417 349.68,129.083 351.597,129.083 
	351.597,130.417 354.284,130.417 354.284,132.114 351.43,132.114 351.43,140.333 "/>
<path fill="#FFFFFF" d="M1241.205,154.167c0,0,2.178-12.343,4.834-12.333s5.166,12.333,5.166,12.333h-4
	c0,0-23.67,26.103-15.154,29.656c11.424,4.768,24.502,29.534,14.801,36.474c-6.156,4.404-46.313,59.078-17.146,73.703
	c20.775,10.417-13.979,37.5-13.979,37.5l-8.502,0.041c0,0,34.553-29.055,18.814-35.541c-27.5-11.334-0.309-64.219,19.238-76.977
	c7.887-5.148-4.572-30.69-16.072-34.523c-8.508-2.836,14.666-30,15.666-30.5L1241.205,154.167z"/>
<circle cx="1185.945" cy="23.406" r="23.406"/>
<path d="M1163.734,30.81c0.898,2.907,2.928-2.319,2.928-2.319c3.205,3.204,7.125-0.241,7.125-0.241s5.918,1.458,5.918-2.792
	s-4.75-3.233-4.75-3.233c-2.5-4.878-6.518,0-6.518,0c0-4.483-5.107-4.878-5.107-4.878
	C1162.705,19.875,1161.789,24.526,1163.734,30.81z"/>
<path fill="#FFFFFF" d="M1256.333,59.5h-7.962c0,0-0.756-9,3.872-9S1256.333,59.5,1256.333,59.5z"/>
</svg>
