<?xml version="1.0" encoding="utf-8"?>
<!-- Generator: Adobe Illustrator 14.0.0, SVG Export Plug-In . SVG Version: 6.00 Build 43363)  -->
<!DOCTYPE svg PUBLIC "-//W3C//DTD SVG 1.1//EN" "http://www.w3.org/Graphics/SVG/1.1/DTD/svg11.dtd">
<svg version="1.1" id="Layer_1" xmlns="http://www.w3.org/2000/svg" xmlns:xlink="http://www.w3.org/1999/xlink" x="0px" y="0px"
	 width="1024px" height="768px" viewBox="0 0 1024 768" enable-background="new 0 0 1024 768" xml:space="preserve">
<path d="M0,278c0,0,69.842-99.053,108-103s86.421,21.991,118,33.833s8.368,102.338,33,90.167c85-42,198.632,3.105,221,11
	s99.565-41.684,131.145-28.526s56.579,42.105,109.211,43.421s234.211,40.789,253.947-55.263s-5.263-96.053-14.474-100
	s-15.79-21.052-15.79-21.052s43.422,15.789,51.316,11.842v-48.684l2.847-2.847l3.063,3.063v2.891h4.359v-2.75l2.836-2.836l3,3V115
	h6.133V55l-6.755-6.755l-4.422-5.995l5.166,2.5L1024,17.667V400H0V278z"/>
<path fill="#FFFFFF" d="M101.216,191.86l8.659,0.306c0,0,0.861-10.585-4.306-10.541C100.402,181.668,101.216,191.86,101.216,191.86z
	"/>
<path fill="#FFFFFF" d="M91.5,202.401l8.659,0.306c0,0,0.861-10.585-4.306-10.541C90.687,192.209,91.5,202.401,91.5,202.401z"/>
<path fill="#FFFFFF" d="M59.216,220.86l8.659,0.306c0,0,0.861-10.585-4.306-10.541C58.402,210.668,59.216,220.86,59.216,220.86z"/>
<path fill="#FFFFFF" d="M76.463,212.942l8.659,0.306c0,0,0.861-10.585-4.306-10.541C75.65,202.75,76.463,212.942,76.463,212.942z"/>
<path fill="#FFFFFF" d="M91.5,219.86l8.659,0.306c0,0,0.861-10.585-4.306-10.541C90.687,209.668,91.5,219.86,91.5,219.86z"/>
<path fill="#FFFFFF" d="M105.596,209.319l8.659,0.306c0,0,0.861-10.585-4.306-10.541
	C104.782,199.127,105.596,209.319,105.596,209.319z"/>
<path fill="#FFFFFF" d="M114.355,194.527l8.659,0.306c0,0,0.861-10.585-4.306-10.541
	C113.542,184.335,114.355,194.527,114.355,194.527z"/>
<polyline points="110.839,177.917 135.839,177.917 135.839,157.917 139.589,157.917 139.589,153.417 136.288,153.417 
	135.839,149.698 134.131,146.667 134.131,145.333 111.673,145.333 111.673,146.667 110.673,149.833 110.185,153.417 
	106.548,153.417 106.548,157.917 110.839,157.906 "/>
<polygon points="122.142,145.333 122.142,137.114 119.392,137.114 119.392,135.417 122.142,135.417 122.142,134.083 
	124.059,134.083 124.059,135.417 126.746,135.417 126.746,137.114 123.892,137.114 123.892,145.333 "/>
<path fill="#FFFFFF" d="M1013.667,159.167c0,0,2.177-12.343,4.833-12.333s5.167,12.333,5.167,12.333h-4
	c0,0-23.671,26.103-15.155,29.656c11.425,4.768,24.502,29.534,14.802,36.474c-6.157,4.405-46.313,59.079-17.146,73.704
	c20.775,10.417-13.979,37.5-13.979,37.5l-8.501,0.042c0,0,34.553-29.055,18.813-35.542c-27.499-11.333-0.309-64.218,19.238-76.977
	c7.887-5.148-4.571-30.689-16.071-34.523c-8.509-2.836,14.666-30,15.666-30.5L1013.667,159.167z"/>
<circle cx="958.407" cy="28.406" r="23.407"/>
<path d="M936.195,35.81c0.899,2.907,2.929-2.319,2.929-2.319c3.204,3.204,7.125-0.241,7.125-0.241s5.917,1.458,5.917-2.792
	s-4.75-3.233-4.75-3.233c-2.5-4.878-6.517,0-6.517,0c0-4.483-5.107-4.878-5.107-4.878C935.167,24.875,934.251,29.526,936.195,35.81z
	"/>
<path d="M1024,64.5h-3.167c0,0-0.333-9,3.167-9V64.5z"/>
</svg>
