<?xml version="1.0" encoding="utf-8"?>
<!-- Generator: Adobe Illustrator 14.0.0, SVG Export Plug-In . SVG Version: 6.00 Build 43363)  -->
<!DOCTYPE svg PUBLIC "-//W3C//DTD SVG 1.1//EN" "http://www.w3.org/Graphics/SVG/1.1/DTD/svg11.dtd">
<svg version="1.1" id="Layer_1" xmlns="http://www.w3.org/2000/svg" xmlns:xlink="http://www.w3.org/1999/xlink" x="0px" y="0px"
	 width="100px" height="100px" viewBox="0 0 100 100" enable-background="new 0 0 100 100" xml:space="preserve">
<path d="M52.847,53.484c0,0-17.502-7.904-17.957-3.813c-0.455,4.092-15.456,29.094-15.456,29.094
	c-4.091-3.637,0.847-26.365,0.847-26.365L7.16,69.219c-3.658-6.819,4.546-23.185,7.273-25.912c2.728-2.728,9.092-4.091,9.092-11.364
	s13.536-11.365,13.536-11.365C96.921,14.47,52.847,53.484,52.847,53.484z M39.891,28.76c-3.636,0-7.728,5.001-7.728,5.001
	C40.994,33.516,43.527,28.76,39.891,28.76z"/>
<path d="M60.343,50.742l2.176-4.942l14.169-16.425c0,0-0.998,5.365,0.875,5.625c21.125,2.938,18.516,24.397,16.971,31.583
	c0,0-4.971-16.958-10.833-10.5c0,0-4.388-7.771-11.167-0.833C72.533,55.25,71.625,46.875,60.343,50.742z"/>
<path d="M22.5,78.656c0,0,6.25,16,11.25,16s19.75,0,23.5,0s10.334-16,10.334-16"/>
<path d="M27.75,78.656c0,0,2.418-12.833,11.084-12.833s10.333,0,15.5,0c4.087,0,8.013,9.132,8.681,12.833
	c0.013,0.07-1.598,0-1.598,0s-3.333-11.75-8.333-11.75s-11.333,0-14.25,0c-6.125,0-9.75,11.75-9.75,11.75"/>
<path d="M56.353,58.317l-1.167,3.708c0,0-3.834,3.584-5.875,3.542s2.793-2.626,2.459-3.417s-3.959,1.041-4.917,1.625
	s-2.374,2.125-2.833,1.25s1.828-3.099,1.828-3.099l2.047-1.359c0,0-2.297,0.802-2.672,0.969s-2.021,1.177-2.625,1.344
	s-0.995-1.063-0.495-1.313s1.792-1.501,2.75-1.917s1.625-0.808,0.917-0.849s-2.68,0.661-3.313,0.703
	c-0.703,0.047-1.359-0.312-0.523-0.896s4.418-1.583,5.502-1.625s7.178-1.032,7.553-0.324S56.353,58.317,56.353,58.317z"/>
</svg>
