<?xml version="1.0" encoding="utf-8"?>
<!-- Generator: Adobe Illustrator 14.0.0, SVG Export Plug-In . SVG Version: 6.00 Build 43363)  -->
<!DOCTYPE svg PUBLIC "-//W3C//DTD SVG 1.1//EN" "http://www.w3.org/Graphics/SVG/1.1/DTD/svg11.dtd">
<svg version="1.1" xmlns="http://www.w3.org/2000/svg" xmlns:xlink="http://www.w3.org/1999/xlink" x="0px" y="0px" width="100px"
	 height="100px" viewBox="0 0 100 100" enable-background="new 0 0 100 100" xml:space="preserve">
<g id="Layer_1">
	<image overflow="visible" width="364" height="321" xlink:href="8DAF51C8.jpg"  transform="matrix(1 0 0 1 -131.5 -110.5)">
	</image>
	<image overflow="visible" width="382" height="69" xlink:href="8DAF51C9.jpg"  transform="matrix(1 0 0 1 -122.5 229.5)">
	</image>
</g>
<g id="Layer_2">
	<polygon fill="#FFFFFF" points="133.667,-98.667 140.667,-77.667 133.667,-49.333 145,-77.667 142,-86 148.667,-83.667 
		151.667,-67.667 151.667,-84.333 140.667,-91 138.333,-98.667 	"/>
	<path d="M114.75,281.75l22.75-69l-4.217-18.335L132.5,186l3.75-11.25l0.5,11.679l3,6.571l3.5-2l2.75-7.25l7-13l6.25-8l5-3.5
		L162,163.5l-4,8l-3.75,10.75c0,0-0.75,2.5,0.75,4s4-2.5,4-2.5l5.25-9l3.25-8.75l3.25-4.25v4.75l-2.5,10L165,186
		c0,0-1.398,2.331,0.751,3.334c1.25,0.583,1.75-2.333,1.75-2.333L170.75,178l4.5-9.75l3.5-3.5v4.75l-2,9.75l-3.5,9.75
		c0,0-1.737,2.455-0.238,2.871c0.683,0.189,1.989-0.954,1.989-0.954l4.75-8.166L182,174.5l2.001-3.333l0.583,6.084l-0.75,8.083
		l-6.333,12.833c0,0-6.751,10.083-9.751,12.083s-8.976,6.825-8.976,6.825L149.5,281.75H114.75z"/>
	<path d="M-136.469,259.5c0,0,10.969-1.167,13.969,4.5s0,11,0,11l9.5,3.333c0,0-2.031-5.667,6-10s11.333,2.833,11.333,2.833
		S-90.865,264-80.333,264s10,7.166,10,7.166s4.5-10.667,14-12.833s16,5.667,16,5.667H-29c0,0-0.333-5.167,12.667-5.667S0,264,0,264
		s11.771,3.166,13.667,4.333s8.667,5.334,8.667,5.334L33,268.333c0,0,1.333-8.334,10-10S57,264,57,264l2.667,4.333l8.833,6l13.167-6
		l10-10c0,0-0.5-5.333,8.333-5.333s9,4.667,9,4.667v7.999l9.76,3.922l14.907-3.922c0,0,4-11.499,11.333-12.666
		s7.78,5.873,7.78,5.873l8.22,6.793l9.333-1.666L179,253c0,0,0.168-6.666,5.584-9.333s8.249-3,11.749,0s3.334,7.333,3.334,7.333
		L213,261c0,0,6.801-3,11.333,0s0,13.333,0,13.333s9.678-4.793,13.839-3.146s12.113-2.754,12.113-2.754l6.247-4.433
		c0,0-3.23-4.5,2.968-4.5V293h-395.833L-136.469,259.5z"/>
</g>
</svg>
